<svg width="234" height="167" viewBox="0 0 234 167" fill="none" xmlns="http://www.w3.org/2000/svg">
<path d="M101.05 14.6489C101.05 14.6489 88.6846 14.3348 83.3271 18.6441C78.9408 22.1722 77.5464 25.6109 76.6447 30.8961C75.558 37.2663 80.567 47.0101 80.567 47.0101C80.567 47.0101 84.6075 54.9825 85.0703 60.4607C85.4941 65.4772 83.4884 68.216 83.3271 73.2454C83.116 79.8251 85.0703 90.0253 85.0703 90.0253C85.0703 90.0253 86.8473 108.67 94.4013 108.67C100.357 108.67 103.374 102.011 103.374 102.011C103.374 102.011 105.227 93.5353 107.732 88.5603C110.258 83.5444 116.158 76.7079 116.158 76.7079C116.158 76.7079 103.856 74.6959 98.7256 69.7828C94.4072 65.6478 92.0432 56.4655 92.0432 56.4655L103.374 54.7342C103.374 54.7342 107.188 63.8963 112.671 66.5867C118.029 69.2156 122.753 69.6947 128.215 67.2525C133.385 64.9407 137.021 61.7388 137.076 56.4655C137.159 48.579 110.056 44.2137 110.056 44.2137C110.056 44.2137 100.985 42.7726 97.4882 39.0199C94.4178 35.7252 93.6721 33.4242 93.6412 28.499C93.6033 22.4749 101.05 14.6489 101.05 14.6489Z" fill="#008CA5"/>
<path d="M105.408 10.7868H96.4013C96.4013 10.7868 100.753 5.72629 105.117 3.46259C108.313 1.80491 113.543 0.000194294 121.097 1.23408e-08C127.484 -0.000164261 132.949 1.63972 136.931 3.99548C140.914 6.35123 145.211 10.7868 145.211 10.7868H135.478C135.478 10.7868 130.394 5.99257 121.097 5.99257C110.621 5.99257 105.408 10.7868 105.408 10.7868Z" fill="#008CA5"/>
<path d="M139.401 15.1821C139.401 15.1821 152.384 14.2079 157.995 18.6441C162.414 22.1376 163.794 25.6082 164.677 30.8961C165.744 37.2809 160.61 47.0101 160.61 47.0101C160.61 47.0101 156.387 54.9644 155.961 60.4607C155.571 65.4935 157.807 68.2028 157.995 73.2454C158.241 79.8348 155.961 90.0253 155.961 90.0253C155.961 90.0253 149.458 108.67 143.211 108.67C138.952 108.67 137.076 102.011 137.076 102.011C137.076 102.011 135.824 93.5558 133.59 88.5603C131.35 83.551 125.745 76.7079 125.745 76.7079C125.745 76.7079 138.104 74.7454 143.178 69.7828C147.416 65.6372 149.805 62.1433 149.57 56.4655C149.262 49.0441 139.837 42.2271 137.076 41.2836C128.506 38.3538 117.61 35.8235 110.056 33.4264C105.408 31.9512 104.952 29.2969 105.408 25.9686C105.919 22.2355 113.398 19.71 113.398 19.71C113.398 19.71 124.527 17.7373 129.522 21.3076C132.876 23.7042 135.188 29.8307 135.188 29.8307L147.1 28.499C147.1 28.499 146.292 24.0924 144.921 21.5744C143.369 18.7259 139.401 15.1821 139.401 15.1821Z" fill="#008CA5"/>
<path d="M7.67018 122.147C7.67018 122.706 7.97524 123.146 8.58537 123.465C9.22455 123.785 10.2124 124.131 11.5488 124.504C13.1468 124.984 14.4542 125.45 15.4711 125.903C16.517 126.355 17.4177 127.061 18.1731 128.02C18.9575 128.979 19.3498 130.231 19.3498 131.776C19.3498 136.73 15.8343 139.207 8.80327 139.207C7.64112 139.207 6.21749 139.113 4.53238 138.927C2.87632 138.74 1.36552 138.501 0 138.208C0.0581074 137.648 0.174322 136.836 0.348644 135.771C0.55202 134.679 0.74087 133.866 0.915192 133.334C1.93207 133.467 3.45739 133.627 5.49115 133.813C7.55396 134 9.10834 134.093 10.1543 134.093C10.7644 134.093 11.1276 134.053 11.2438 133.973C11.4181 133.866 11.5488 133.693 11.636 133.454C11.7522 133.187 11.8103 132.961 11.8103 132.774C11.8103 132.242 11.5343 131.842 10.9823 131.576C10.4303 131.283 9.48603 130.937 8.14956 130.537C6.55161 130.084 5.22967 129.618 4.18373 129.139C3.1378 128.659 2.22261 127.913 1.43816 126.901C0.653708 125.889 0.261483 124.557 0.261483 122.906C0.261483 121.734 0.55202 120.589 1.13309 119.47C1.71417 118.325 2.30977 117.553 2.9199 117.153C3.38476 116.86 4.34353 116.58 5.79621 116.314C7.2489 116.048 8.61442 115.915 9.89279 115.915C13.1468 115.915 15.8052 116.194 17.868 116.754C17.839 117.286 17.7373 118.019 17.563 118.951C17.4177 119.883 17.2579 120.735 17.0836 121.508L16.0812 121.468C12.3042 121.228 9.89279 121.108 8.84685 121.108C8.41105 121.108 8.16409 121.122 8.10598 121.148C7.98977 121.202 7.88808 121.321 7.80092 121.508C7.71376 121.694 7.67018 121.907 7.67018 122.147Z" fill="#008CA5"/>
<path d="M41.9528 121.548C42.2142 121.841 42.4031 122.573 42.5193 123.745C42.6646 124.917 42.7372 126.702 42.7372 129.099V138.767H35.2849V129.179C35.2849 129.072 35.2849 128.553 35.2849 127.62C35.2849 126.662 35.2123 126.076 35.067 125.863C34.9799 125.756 34.762 125.676 34.4133 125.623C34.0937 125.57 33.716 125.543 33.2802 125.543L32.5394 125.583C31.7258 125.61 30.8833 125.783 30.0117 126.102V138.767H22.5594V114.796L30.0117 114.516V119.191C30.0117 121.108 29.939 122.387 29.7938 123.026L29.8374 123.066C31.813 121.015 34.1809 119.99 36.941 119.99C37.9869 119.99 38.9602 120.123 39.8609 120.389C40.7906 120.656 41.4879 121.042 41.9528 121.548Z" fill="#008CA5"/>
<path d="M55.8546 139.287C52.3682 139.287 49.7533 138.541 48.0101 137.049C46.2959 135.531 45.4389 133.147 45.4389 129.898C45.4389 128.113 45.6132 126.555 45.9618 125.223C46.3395 123.865 46.7899 122.919 47.3128 122.387C47.9811 121.694 49.2013 121.122 50.9736 120.669C52.7749 120.216 54.46 119.99 56.0289 119.99C59.7769 119.99 62.4498 120.722 64.0478 122.187C65.6457 123.652 66.4447 125.996 66.4447 129.219C66.4447 132.681 65.5876 135.225 63.8734 136.849C62.1593 138.474 59.4863 139.287 55.8546 139.287ZM55.9854 134.612C57.1184 134.612 57.8593 134.253 58.208 133.533C58.5566 132.788 58.7309 131.483 58.7309 129.618C58.7309 128.313 58.6583 127.314 58.513 126.622C58.3678 125.903 58.0917 125.383 57.685 125.064C57.3073 124.717 56.7117 124.544 55.8982 124.544C54.736 124.544 54.0678 124.637 53.8935 124.824C53.6611 125.01 53.4722 125.596 53.3269 126.582C53.1817 127.567 53.109 128.593 53.109 129.658C53.109 131.469 53.2979 132.748 53.6756 133.493C54.0823 134.239 54.8523 134.612 55.9854 134.612Z" fill="#008CA5"/>
<path d="M83.0608 119.99C85.1527 119.99 86.8087 120.629 88.029 121.907C89.2783 123.159 89.9029 125.357 89.9029 128.499C89.9029 130.843 89.656 132.761 89.1621 134.253C88.6682 135.717 88.1016 136.69 87.4624 137.169C86.8232 137.648 85.7047 138.035 84.1067 138.328C82.5378 138.621 80.9108 138.767 79.2257 138.767C78.7318 138.767 77.9038 138.741 76.7416 138.687V144.36L69.2893 144.64V120.389H75.3906L76.1315 123.226C76.8869 122.24 77.8456 121.455 79.0078 120.869C80.199 120.283 81.55 119.99 83.0608 119.99ZM81.3176 133.893C81.6372 133.68 81.8696 133.081 82.0149 132.095C82.1601 131.083 82.2328 130.124 82.2328 129.219C82.2328 127.727 82.0294 126.622 81.6226 125.903C81.2159 125.183 80.4024 124.824 79.1821 124.824C78.3105 124.824 77.497 124.904 76.7416 125.064V133.933L77.9619 134.053C78.3396 134.079 78.8771 134.093 79.5743 134.093C80.5622 134.093 81.1432 134.026 81.3176 133.893Z" fill="#008CA5"/>
<path d="M111.886 139.287C107.557 139.287 104.303 138.354 102.124 136.49C99.9743 134.599 98.8993 131.576 98.8993 127.421C98.8993 123.346 100.09 120.376 102.473 118.511C104.855 116.647 108.008 115.715 111.93 115.715C120.181 115.715 124.307 119.484 124.307 127.021C124.307 130.83 123.29 133.826 121.256 136.01C119.251 138.194 116.128 139.287 111.886 139.287ZM111.712 134.572C112.525 134.572 113.208 134.452 113.76 134.213C114.312 133.946 114.748 133.493 115.068 132.854C115.678 131.762 115.983 129.978 115.983 127.501C115.983 125.077 115.678 123.319 115.068 122.227C114.458 121.108 113.339 120.522 111.712 120.469C111.102 120.469 110.463 120.536 109.794 120.669C109.155 120.775 108.748 120.935 108.574 121.148C108.225 121.521 107.949 122.32 107.746 123.545C107.572 124.744 107.485 126.062 107.485 127.501C107.485 129.738 107.717 131.376 108.182 132.415C108.502 133.187 108.952 133.746 109.533 134.093C110.114 134.412 110.84 134.572 111.712 134.572Z" fill="#008CA5"/>
<path d="M147.342 114.516V138.767H141.198L140.587 135.691C140.006 136.73 139.149 137.555 138.016 138.168C136.883 138.78 135.605 139.087 134.181 139.087C131.915 139.087 130.099 138.341 128.734 136.849C127.397 135.358 126.729 133.121 126.729 130.137C126.729 127.874 127.019 126.009 127.6 124.544C128.182 123.079 128.864 122.027 129.649 121.388C130.143 120.988 131.145 120.656 132.656 120.389C134.196 120.123 135.561 119.99 136.752 119.99C137.798 119.99 138.873 120.083 139.977 120.269C139.89 118.991 139.847 118.285 139.847 118.152V114.796L147.342 114.516ZM137.45 133.733C138.234 133.733 139.048 133.613 139.89 133.374V124.704C139.048 124.597 138.118 124.544 137.101 124.544C136.229 124.544 135.677 124.611 135.445 124.744C135.125 124.957 134.864 125.57 134.661 126.582C134.486 127.567 134.399 128.606 134.399 129.698C134.399 131.323 134.661 132.401 135.183 132.934C135.735 133.467 136.491 133.733 137.45 133.733Z" fill="#008CA5"/>
<path d="M160.593 139.287C157.106 139.287 154.491 138.541 152.748 137.049C151.034 135.531 150.177 133.147 150.177 129.898C150.177 128.113 150.351 126.555 150.7 125.223C151.078 123.865 151.528 122.919 152.051 122.387C152.719 121.694 153.939 121.122 155.712 120.669C157.513 120.216 159.198 119.99 160.767 119.99C164.515 119.99 167.188 120.722 168.786 122.187C170.384 123.652 171.183 125.996 171.183 129.219C171.183 132.681 170.326 135.225 168.611 136.849C166.897 138.474 164.224 139.287 160.593 139.287ZM160.723 134.612C161.856 134.612 162.597 134.253 162.946 133.533C163.295 132.788 163.469 131.483 163.469 129.618C163.469 128.313 163.396 127.314 163.251 126.622C163.106 125.903 162.83 125.383 162.423 125.064C162.045 124.717 161.45 124.544 160.636 124.544C159.474 124.544 158.806 124.637 158.632 124.824C158.399 125.01 158.21 125.596 158.065 126.582C157.92 127.567 157.847 128.593 157.847 129.658C157.847 131.469 158.036 132.748 158.414 133.493C158.82 134.239 159.59 134.612 160.723 134.612Z" fill="#008CA5"/>
<path d="M193.421 121.548C193.682 121.841 193.871 122.573 193.987 123.745C194.133 124.917 194.205 126.702 194.205 129.099V138.767H186.753V127.541C186.753 126.688 186.68 126.156 186.535 125.942C186.303 125.676 185.765 125.543 184.923 125.543C184.516 125.543 184.211 125.556 184.007 125.583C183.194 125.61 182.351 125.783 181.48 126.102V138.767H174.027V120.389H180.085L180.913 123.465C183.005 121.148 185.504 119.99 188.409 119.99C189.455 119.99 190.428 120.123 191.329 120.389C192.259 120.656 192.956 121.042 193.421 121.548Z" fill="#008CA5"/>
<path d="M206.887 131.216C206.887 131.696 206.901 132.202 206.93 132.734C206.959 133.24 207.047 133.56 207.192 133.693C207.395 133.88 208.107 133.973 209.327 133.973L210.809 133.933C211.071 135.211 211.201 136.69 211.201 138.368C210.649 138.554 209.836 138.727 208.761 138.887C207.715 139.047 206.712 139.127 205.754 139.127C203.749 139.127 202.195 138.727 201.091 137.928C200.016 137.102 199.478 135.837 199.478 134.133V124.304H196.21V120.669L199.478 120.389L201.439 115.994L206.887 115.715V120.389H211.506V124.304H206.887V131.216Z" fill="#008CA5"/>
<path d="M223.41 139.287C219.923 139.287 217.309 138.541 215.565 137.049C213.851 135.531 212.994 133.147 212.994 129.898C212.994 128.113 213.168 126.555 213.517 125.223C213.895 123.865 214.345 122.919 214.868 122.387C215.536 121.694 216.757 121.122 218.529 120.669C220.33 120.216 222.015 119.99 223.584 119.99C227.332 119.99 230.005 120.722 231.603 122.187C233.201 123.652 234 125.996 234 129.219C234 132.681 233.143 135.225 231.429 136.849C229.715 138.474 227.042 139.287 223.41 139.287ZM223.541 134.612C224.674 134.612 225.415 134.253 225.763 133.533C226.112 132.788 226.286 131.483 226.286 129.618C226.286 128.313 226.214 127.314 226.068 126.622C225.923 125.903 225.647 125.383 225.24 125.064C224.863 124.717 224.267 124.544 223.454 124.544C222.291 124.544 221.623 124.637 221.449 124.824C221.216 125.01 221.028 125.596 220.882 126.582C220.737 127.567 220.664 128.593 220.664 129.658C220.664 131.469 220.853 132.748 221.231 133.493C221.638 134.239 222.408 134.612 223.541 134.612Z" fill="#008CA5"/>
<path d="M67.2012 151.818C69.4674 151.818 71.3172 152.014 72.7505 152.404C74.2032 152.795 75.3266 153.532 76.1207 154.615C76.9342 155.698 77.341 157.252 77.341 159.276C77.341 161.442 76.9148 163.094 76.0626 164.23C75.2104 165.349 74.0676 166.094 72.6343 166.467C71.2009 166.822 69.3899 167 67.2012 167H61.3905V151.818H67.2012ZM71.0944 163.378C71.3268 163.165 71.4915 162.614 71.5883 161.726C71.6852 160.838 71.7336 160.022 71.7336 159.276C71.7336 158.335 71.6561 157.589 71.5012 157.039C71.3656 156.47 71.1138 156.018 70.7458 155.68C70.1647 155.094 69.1672 154.801 67.7532 154.801C67.5014 154.801 67.1237 154.819 66.6201 154.855V163.697C66.9494 163.733 67.4627 163.751 68.16 163.751C68.8766 163.751 69.5061 163.724 70.0485 163.671C70.6102 163.6 70.9588 163.502 71.0944 163.378Z" fill="#008CA5"/>
<path d="M79.5173 151.818H91.5745V155.014H84.7469V157.784H90.4996V160.661H84.7469V163.751H91.5455V167H79.5173V151.818Z" fill="#008CA5"/>
<path d="M98.6441 160.874V167H93.7922V151.818H98.7022L103.089 157.944C103.748 158.85 104.251 159.613 104.6 160.235H104.687V151.818H109.51V167H104.571L100.068 160.608L98.7603 158.796H98.6732L98.6441 160.874Z" fill="#008CA5"/>
<path d="M120.78 167H115.55V155.148H110.872V151.818H125.457V155.148H120.78V167Z" fill="#008CA5"/>
<path d="M135.469 163.671H130.647L129.775 167H124.429L129.775 151.818H136.603L141.716 167H136.341L135.469 163.671ZM133.029 155.094L131.315 160.714H134.772L133.145 155.094H133.029Z" fill="#008CA5"/>
<path d="M143.103 151.818H148.332V163.484H155.102V167H143.103V151.818Z" fill="#008CA5"/>
</svg>
